<?xml version="1.0" encoding="UTF-8"?>
<svg id="Layer_1" xmlns="http://www.w3.org/2000/svg" version="1.1" viewBox="0 0 276.7 141.9">
  <!-- Generator: Adobe Illustrator 29.4.0, SVG Export Plug-In . SVG Version: 2.1.0 Build 152)  -->
  <defs>
    <style>
      .st0 {
        fill: #fff;
      }
      .letter {
        transform-box: fill-box;
        transform-origin: center;
        animation-duration: 4040ms;
        animation-timing-function: linear;
        animation-iteration-count: infinite;
        animation-play-state: paused;
      }
      svg:hover .letter {
        animation-play-state: running;
      }
      .a-mark {
        animation-name: aMark;
      }
      .s-letter {
        animation-name: sJump;
      }
      .i1-dot,
      .i1-stem {
        animation-name: i1Jump;
      }
      .n-letter {
        animation-name: nJump;
      }
      .e-letter {
        animation-name: eNudge;
      }
      .i2-dot,
      .i2-stem {
        animation-name: i2Jump;
      }
      .ra-letter {
        animation-name: raNudge;
      }

      @keyframes aMark {
        0%, 49.5%, 100% { transform: translate(0 0) rotate(0deg); }
        12% { transform: translate(1px, 1px) rotate(-5deg); }
        24% { transform: translate(2px, 1px) rotate(-9deg); }
        34% { transform: translate(3px, 2px) rotate(-12deg); }
        43% { transform: translate(2px, 1px) rotate(-6deg); }
      }
      @keyframes sJump {
        0%, 49.5%, 100% { transform: translate(0 0); }
        22% { transform: translate(0, -18px); }
        30% { transform: translate(0, -22px); }
        38% { transform: translate(0, -16px); }
        44% { transform: translate(0, -8px); }
      }
      @keyframes i1Jump {
        0%, 49.5%, 100% { transform: translate(0 0); }
        23% { transform: translate(0, -14px); }
        30% { transform: translate(0, -18px); }
        38% { transform: translate(0, -12px); }
        44% { transform: translate(0, -4px); }
      }
      @keyframes nJump {
        0%, 49.5%, 100% { transform: translate(0 0); }
        24% { transform: translate(0, -8px); }
        32% { transform: translate(0, -10px); }
        40% { transform: translate(0, -6px); }
        46% { transform: translate(0, -2px); }
      }
      @keyframes eNudge {
        0%, 100% { transform: translate(0 0); }
        32% { transform: translate(-1px, 0); }
        44% { transform: translate(0, 0); }
      }
      @keyframes i2Jump {
        0%, 49.5%, 100% { transform: translate(0 0); }
        24% { transform: translate(0, -5px); }
        32% { transform: translate(0, -7px); }
        40% { transform: translate(0, -4px); }
        46% { transform: translate(0, -1px); }
      }
      @keyframes raNudge {
        0%, 100% { transform: translate(0 0); }
        24% { transform: translate(-2px, -1px); }
        32% { transform: translate(-3px, -2px); }
        40% { transform: translate(-1px, -1px); }
        46% { transform: translate(0, 0); }
      }
    </style>
  </defs>
  <path class="st0 letter a-mark" d="M69.8,81.5c-.9,2.2-2,5.5-2.1,6.1l-6.1-2.5c0-.5.4-1.8.6-2.4-1.4,1-3.5,1.8-7.6.2s-6.4-6.9-5-10.4c2.1-5.2,7.3-6,14.1-3.2l3.3,1.3.6-1.4c.7-1.6.7-3.5-2.2-4.7s-3.7-.2-4.7,1.4l-6.1-2.5c2-4,5.9-6.2,12.9-3.4,6.2,2.5,8.5,6.3,6.3,11.8l-3.9,9.7ZM65.5,74.4l-2.6-1.1c-3.8-1.6-5.7-1-6.6,1.3s-.2,3.5,2.1,4.4c4.1,1.6,5.7-1,6.9-4l.2-.6Z"/>
  <path class="st0 letter s-letter" d="M96.4,77.3c.8,3.3,3.1,4.8,7,4.8s5.5-1.5,5.5-3.9-1.6-3.9-7.3-5.2c-9-2.1-11.2-5.4-11.2-9.9s4.3-9.7,12.1-9.7,12.3,4.7,12.8,9.6h-7.2c-.3-2-1.5-4.2-5.7-4.2s-4.7,1.2-4.7,3.5,1.4,3.2,6.8,4.5c9.6,2.3,11.7,5.8,11.7,10.5s-4.6,10.2-13.3,10.2-12.8-4.1-13.6-10.2h7.2Z"/>
  <rect class="st0 letter i1-dot" x="118.7" y="61.6" width="6.9" height="6.1"/>
  <rect class="st0 letter i1-stem" x="118.7" y="71" width="6.9" height="16"/>
  <path class="st0 letter n-letter" d="M129.3,68.4c0-2.1,0-5,0-6.8h6.7c.1.6.2,2.9.3,3.7.8-1.6,2.9-3.7,7.2-3.7s8.2,3.4,8.2,9.6v15.8h-6.9v-15c0-2.8-.9-4.8-4-4.8s-4.6,1.6-4.6,6v13.8h-6.9v-18.6Z"/>
  <path class="st0 letter e-letter" d="M161.2,76c0,3.1,1.6,6.1,5,6.1s3.7-1.1,4.3-2.7h6.9c-.9,3-3.6,8-11.4,8s-11.7-6.1-11.7-12.6,4-13.4,12-13.4,11.4,6.2,11.4,12.4,0,1.4,0,2.1h-16.4ZM170.8,71.8c0-2.9-1.2-5.3-4.6-5.3s-4.6,2.3-4.9,5.3h9.5Z"/>
  <rect class="st0 letter i2-dot" x="180.3" y="53.4" width="6.9" height="6.1"/>
  <rect class="st0 letter i2-stem" x="180.3" y="62.9" width="6.9" height="24.1"/>
  <path class="st0 letter ra-letter" d="M191,69.6c0-2.5,0-4.7,0-6.7h6.7c0,.6.2,3,.2,4.4,1.1-2.8,3.7-4.9,8-4.9v6.6c-5-.1-8,.5-8,7.3v10.8h-6.9v-17.4Z"/>
  <path class="st0 letter ra-letter" d="M227.9,80.3c0,2.4.2,5.8.3,6.4h-6.6c-.2-.5-.3-1.8-.3-2.4-.9,1.4-2.6,3-7,3s-8.5-3.9-8.5-7.8c0-5.7,4.5-8.3,11.8-8.3h3.5v-1.9c0-1.8-.6-3.1-3.8-3.1s-3.5.8-3.9,2.6h-6.5c.4-4.4,3.1-7.6,10.7-7.6,6.7,0,10.3,2.3,10.3,8.2v10.8ZM221.2,75.4h-2.8c-4.1,0-5.7,1.3-5.7,3.7s1.1,3.3,3.6,3.3c4.4,0,4.9-3,4.9-6.3v-.7Z"/>
</svg>